<mxfile host="app.diagrams.net" modified="2021-01-28T22:32:57.507Z" agent="5.0 (Windows NT 10.0; Win64; x64) AppleWebKit/537.36 (KHTML, like Gecko) Chrome/88.0.4324.104 Safari/537.36" etag="E1U6c-ssFuWtUJTApJw9" version="14.2.7" type="github" pages="3">
  <diagram id="_c5UoDet7S7U7oNL-fHp" name="UML">
    <mxGraphModel dx="1283" dy="689" grid="1" gridSize="10" guides="1" tooltips="1" connect="1" arrows="1" fold="1" page="1" pageScale="1" pageWidth="827" pageHeight="1169" math="0" shadow="0">
      <root>
        <mxCell id="0" />
        <mxCell id="1" parent="0" />
        <mxCell id="5Lk-2WCluk9JZzfyR8hW-23" value="Ploca" style="swimlane;fontStyle=1;align=center;verticalAlign=top;childLayout=stackLayout;horizontal=1;startSize=26;horizontalStack=0;resizeParent=1;resizeParentMax=0;resizeLast=0;collapsible=1;marginBottom=0;" parent="1" vertex="1">
          <mxGeometry x="380" y="386" width="250" height="398" as="geometry" />
        </mxCell>
        <mxCell id="5Lk-2WCluk9JZzfyR8hW-24" value="def __init__(self):&#xa;" style="text;strokeColor=none;fillColor=none;align=left;verticalAlign=top;spacingLeft=4;spacingRight=4;overflow=hidden;rotatable=0;points=[[0,0.5],[1,0.5]];portConstraint=eastwest;" parent="5Lk-2WCluk9JZzfyR8hW-23" vertex="1">
          <mxGeometry y="26" width="250" height="26" as="geometry" />
        </mxCell>
        <mxCell id="5Lk-2WCluk9JZzfyR8hW-48" value="+StartBoja" style="text;strokeColor=none;fillColor=none;align=left;verticalAlign=top;spacingLeft=4;spacingRight=4;overflow=hidden;rotatable=0;points=[[0,0.5],[1,0.5]];portConstraint=eastwest;" parent="5Lk-2WCluk9JZzfyR8hW-23" vertex="1">
          <mxGeometry y="52" width="250" height="26" as="geometry" />
        </mxCell>
        <mxCell id="5Lk-2WCluk9JZzfyR8hW-49" value="+KrajBoja" style="text;strokeColor=none;fillColor=none;align=left;verticalAlign=top;spacingLeft=4;spacingRight=4;overflow=hidden;rotatable=0;points=[[0,0.5],[1,0.5]];portConstraint=eastwest;" parent="5Lk-2WCluk9JZzfyR8hW-23" vertex="1">
          <mxGeometry y="78" width="250" height="26" as="geometry" />
        </mxCell>
        <mxCell id="5Lk-2WCluk9JZzfyR8hW-50" value="+Pozicijapijuna" style="text;strokeColor=none;fillColor=none;align=left;verticalAlign=top;spacingLeft=4;spacingRight=4;overflow=hidden;rotatable=0;points=[[0,0.5],[1,0.5]];portConstraint=eastwest;" parent="5Lk-2WCluk9JZzfyR8hW-23" vertex="1">
          <mxGeometry y="104" width="250" height="26" as="geometry" />
        </mxCell>
        <mxCell id="5Lk-2WCluk9JZzfyR8hW-51" value="+ploca_pozicija" style="text;strokeColor=none;fillColor=none;align=left;verticalAlign=top;spacingLeft=4;spacingRight=4;overflow=hidden;rotatable=0;points=[[0,0.5],[1,0.5]];portConstraint=eastwest;" parent="5Lk-2WCluk9JZzfyR8hW-23" vertex="1">
          <mxGeometry y="130" width="250" height="26" as="geometry" />
        </mxCell>
        <mxCell id="5Lk-2WCluk9JZzfyR8hW-25" value="" style="line;strokeWidth=1;fillColor=none;align=left;verticalAlign=middle;spacingTop=-1;spacingLeft=3;spacingRight=3;rotatable=0;labelPosition=right;points=[];portConstraint=eastwest;" parent="5Lk-2WCluk9JZzfyR8hW-23" vertex="1">
          <mxGeometry y="156" width="250" height="8" as="geometry" />
        </mxCell>
        <mxCell id="5Lk-2WCluk9JZzfyR8hW-32" value="+postavi_pijuna()" style="text;strokeColor=none;fillColor=none;align=left;verticalAlign=top;spacingLeft=4;spacingRight=4;overflow=hidden;rotatable=0;points=[[0,0.5],[1,0.5]];portConstraint=eastwest;" parent="5Lk-2WCluk9JZzfyR8hW-23" vertex="1">
          <mxGeometry y="164" width="250" height="26" as="geometry" />
        </mxCell>
        <mxCell id="5Lk-2WCluk9JZzfyR8hW-26" value="+stavi_pijun_na_ploca_pool()" style="text;strokeColor=none;fillColor=none;align=left;verticalAlign=top;spacingLeft=4;spacingRight=4;overflow=hidden;rotatable=0;points=[[0,0.5],[1,0.5]];portConstraint=eastwest;" parent="5Lk-2WCluk9JZzfyR8hW-23" vertex="1">
          <mxGeometry y="190" width="250" height="26" as="geometry" />
        </mxCell>
        <mxCell id="5Lk-2WCluk9JZzfyR8hW-27" value="+jeli_pijun_na_ploca_pool()" style="text;strokeColor=none;fillColor=none;align=left;verticalAlign=top;spacingLeft=4;spacingRight=4;overflow=hidden;rotatable=0;points=[[0,0.5],[1,0.5]];portConstraint=eastwest;" parent="5Lk-2WCluk9JZzfyR8hW-23" vertex="1">
          <mxGeometry y="216" width="250" height="26" as="geometry" />
        </mxCell>
        <mxCell id="5Lk-2WCluk9JZzfyR8hW-29" value="+stavi_pijun_na_pocetno_polje()" style="text;strokeColor=none;fillColor=none;align=left;verticalAlign=top;spacingLeft=4;spacingRight=4;overflow=hidden;rotatable=0;points=[[0,0.5],[1,0.5]];portConstraint=eastwest;" parent="5Lk-2WCluk9JZzfyR8hW-23" vertex="1">
          <mxGeometry y="242" width="250" height="26" as="geometry" />
        </mxCell>
        <mxCell id="5Lk-2WCluk9JZzfyR8hW-30" value="+mogucnost_pijun_kretanja()" style="text;strokeColor=none;fillColor=none;align=left;verticalAlign=top;spacingLeft=4;spacingRight=4;overflow=hidden;rotatable=0;points=[[0,0.5],[1,0.5]];portConstraint=eastwest;" parent="5Lk-2WCluk9JZzfyR8hW-23" vertex="1">
          <mxGeometry y="268" width="250" height="26" as="geometry" />
        </mxCell>
        <mxCell id="5Lk-2WCluk9JZzfyR8hW-31" value="+pomakni_pijun()" style="text;strokeColor=none;fillColor=none;align=left;verticalAlign=top;spacingLeft=4;spacingRight=4;overflow=hidden;rotatable=0;points=[[0,0.5],[1,0.5]];portConstraint=eastwest;" parent="5Lk-2WCluk9JZzfyR8hW-23" vertex="1">
          <mxGeometry y="294" width="250" height="26" as="geometry" />
        </mxCell>
        <mxCell id="5Lk-2WCluk9JZzfyR8hW-33" value="+pijun_na_kraju()" style="text;strokeColor=none;fillColor=none;align=left;verticalAlign=top;spacingLeft=4;spacingRight=4;overflow=hidden;rotatable=0;points=[[0,0.5],[1,0.5]];portConstraint=eastwest;" parent="5Lk-2WCluk9JZzfyR8hW-23" vertex="1">
          <mxGeometry y="320" width="250" height="26" as="geometry" />
        </mxCell>
        <mxCell id="5Lk-2WCluk9JZzfyR8hW-34" value="+pijuni_ista_pozicija()" style="text;strokeColor=none;fillColor=none;align=left;verticalAlign=top;spacingLeft=4;spacingRight=4;overflow=hidden;rotatable=0;points=[[0,0.5],[1,0.5]];portConstraint=eastwest;" parent="5Lk-2WCluk9JZzfyR8hW-23" vertex="1">
          <mxGeometry y="346" width="250" height="26" as="geometry" />
        </mxCell>
        <mxCell id="5Lk-2WCluk9JZzfyR8hW-35" value="+oboji_plocu()" style="text;strokeColor=none;fillColor=none;align=left;verticalAlign=top;spacingLeft=4;spacingRight=4;overflow=hidden;rotatable=0;points=[[0,0.5],[1,0.5]];portConstraint=eastwest;" parent="5Lk-2WCluk9JZzfyR8hW-23" vertex="1">
          <mxGeometry y="372" width="250" height="26" as="geometry" />
        </mxCell>
        <mxCell id="5Lk-2WCluk9JZzfyR8hW-53" value="Igrac" style="swimlane;fontStyle=1;align=center;verticalAlign=top;childLayout=stackLayout;horizontal=1;startSize=26;horizontalStack=0;resizeParent=1;resizeParentMax=0;resizeLast=0;collapsible=1;marginBottom=0;" parent="1" vertex="1">
          <mxGeometry x="110" y="140" width="160" height="216" as="geometry" />
        </mxCell>
        <mxCell id="5Lk-2WCluk9JZzfyR8hW-54" value="def __init__&#xa;" style="text;strokeColor=none;fillColor=none;align=left;verticalAlign=top;spacingLeft=4;spacingRight=4;overflow=hidden;rotatable=0;points=[[0,0.5],[1,0.5]];portConstraint=eastwest;" parent="5Lk-2WCluk9JZzfyR8hW-53" vertex="1">
          <mxGeometry y="26" width="160" height="26" as="geometry" />
        </mxCell>
        <mxCell id="5Lk-2WCluk9JZzfyR8hW-57" value="+self.boja" style="text;strokeColor=none;fillColor=none;align=left;verticalAlign=top;spacingLeft=4;spacingRight=4;overflow=hidden;rotatable=0;points=[[0,0.5],[1,0.5]];portConstraint=eastwest;" parent="5Lk-2WCluk9JZzfyR8hW-53" vertex="1">
          <mxGeometry y="52" width="160" height="26" as="geometry" />
        </mxCell>
        <mxCell id="5Lk-2WCluk9JZzfyR8hW-58" value="+self.izaberi_pijun_delegate" style="text;strokeColor=none;fillColor=none;align=left;verticalAlign=top;spacingLeft=4;spacingRight=4;overflow=hidden;rotatable=0;points=[[0,0.5],[1,0.5]];portConstraint=eastwest;" parent="5Lk-2WCluk9JZzfyR8hW-53" vertex="1">
          <mxGeometry y="78" width="160" height="26" as="geometry" />
        </mxCell>
        <mxCell id="5Lk-2WCluk9JZzfyR8hW-59" value="+self.ime" style="text;strokeColor=none;fillColor=none;align=left;verticalAlign=top;spacingLeft=4;spacingRight=4;overflow=hidden;rotatable=0;points=[[0,0.5],[1,0.5]];portConstraint=eastwest;" parent="5Lk-2WCluk9JZzfyR8hW-53" vertex="1">
          <mxGeometry y="104" width="160" height="26" as="geometry" />
        </mxCell>
        <mxCell id="5Lk-2WCluk9JZzfyR8hW-60" value="+self.finished" style="text;strokeColor=none;fillColor=none;align=left;verticalAlign=top;spacingLeft=4;spacingRight=4;overflow=hidden;rotatable=0;points=[[0,0.5],[1,0.5]];portConstraint=eastwest;" parent="5Lk-2WCluk9JZzfyR8hW-53" vertex="1">
          <mxGeometry y="130" width="160" height="26" as="geometry" />
        </mxCell>
        <mxCell id="5Lk-2WCluk9JZzfyR8hW-61" value="+self.pijuni" style="text;strokeColor=none;fillColor=none;align=left;verticalAlign=top;spacingLeft=4;spacingRight=4;overflow=hidden;rotatable=0;points=[[0,0.5],[1,0.5]];portConstraint=eastwest;" parent="5Lk-2WCluk9JZzfyR8hW-53" vertex="1">
          <mxGeometry y="156" width="160" height="26" as="geometry" />
        </mxCell>
        <mxCell id="5Lk-2WCluk9JZzfyR8hW-55" value="" style="line;strokeWidth=1;fillColor=none;align=left;verticalAlign=middle;spacingTop=-1;spacingLeft=3;spacingRight=3;rotatable=0;labelPosition=right;points=[];portConstraint=eastwest;" parent="5Lk-2WCluk9JZzfyR8hW-53" vertex="1">
          <mxGeometry y="182" width="160" height="8" as="geometry" />
        </mxCell>
        <mxCell id="5Lk-2WCluk9JZzfyR8hW-56" value="+izaberi_pijun()" style="text;strokeColor=none;fillColor=none;align=left;verticalAlign=top;spacingLeft=4;spacingRight=4;overflow=hidden;rotatable=0;points=[[0,0.5],[1,0.5]];portConstraint=eastwest;" parent="5Lk-2WCluk9JZzfyR8hW-53" vertex="1">
          <mxGeometry y="190" width="160" height="26" as="geometry" />
        </mxCell>
        <mxCell id="5Lk-2WCluk9JZzfyR8hW-62" value="Igra" style="swimlane;fontStyle=1;align=center;verticalAlign=top;childLayout=stackLayout;horizontal=1;startSize=26;horizontalStack=0;resizeParent=1;resizeParentMax=0;resizeLast=0;collapsible=1;marginBottom=0;fillColor=#f8cecc;strokeColor=#b85450;" parent="1" vertex="1">
          <mxGeometry x="80" y="480" width="160" height="556" as="geometry" />
        </mxCell>
        <mxCell id="5Lk-2WCluk9JZzfyR8hW-63" value="def __init__(self):&#xa;" style="text;strokeColor=none;fillColor=none;align=left;verticalAlign=top;spacingLeft=4;spacingRight=4;overflow=hidden;rotatable=0;points=[[0,0.5],[1,0.5]];portConstraint=eastwest;" parent="5Lk-2WCluk9JZzfyR8hW-62" vertex="1">
          <mxGeometry y="26" width="160" height="26" as="geometry" />
        </mxCell>
        <mxCell id="5Lk-2WCluk9JZzfyR8hW-66" value="+self.igraci" style="text;align=left;verticalAlign=top;spacingLeft=4;spacingRight=4;overflow=hidden;rotatable=0;points=[[0,0.5],[1,0.5]];portConstraint=eastwest;" parent="5Lk-2WCluk9JZzfyR8hW-62" vertex="1">
          <mxGeometry y="52" width="160" height="28" as="geometry" />
        </mxCell>
        <mxCell id="5Lk-2WCluk9JZzfyR8hW-67" value="+self.mjesto" style="text;strokeColor=none;fillColor=none;align=left;verticalAlign=top;spacingLeft=4;spacingRight=4;overflow=hidden;rotatable=0;points=[[0,0.5],[1,0.5]];portConstraint=eastwest;" parent="5Lk-2WCluk9JZzfyR8hW-62" vertex="1">
          <mxGeometry y="80" width="160" height="26" as="geometry" />
        </mxCell>
        <mxCell id="5Lk-2WCluk9JZzfyR8hW-77" value="+self.ploca" style="text;strokeColor=none;fillColor=none;align=left;verticalAlign=top;spacingLeft=4;spacingRight=4;overflow=hidden;rotatable=0;points=[[0,0.5],[1,0.5]];portConstraint=eastwest;" parent="5Lk-2WCluk9JZzfyR8hW-62" vertex="1">
          <mxGeometry y="106" width="160" height="26" as="geometry" />
        </mxCell>
        <mxCell id="5Lk-2WCluk9JZzfyR8hW-68" value="+self.finished" style="text;strokeColor=none;fillColor=none;align=left;verticalAlign=top;spacingLeft=4;spacingRight=4;overflow=hidden;rotatable=0;points=[[0,0.5],[1,0.5]];portConstraint=eastwest;" parent="5Lk-2WCluk9JZzfyR8hW-62" vertex="1">
          <mxGeometry y="132" width="160" height="26" as="geometry" />
        </mxCell>
        <mxCell id="5Lk-2WCluk9JZzfyR8hW-69" value="+self.dobivena_vrijednost" style="text;strokeColor=none;fillColor=none;align=left;verticalAlign=top;spacingLeft=4;spacingRight=4;overflow=hidden;rotatable=0;points=[[0,0.5],[1,0.5]];portConstraint=eastwest;" parent="5Lk-2WCluk9JZzfyR8hW-62" vertex="1">
          <mxGeometry y="158" width="160" height="26" as="geometry" />
        </mxCell>
        <mxCell id="5Lk-2WCluk9JZzfyR8hW-70" value="+self_trenutni_igrac" style="text;strokeColor=none;fillColor=none;align=left;verticalAlign=top;spacingLeft=4;spacingRight=4;overflow=hidden;rotatable=0;points=[[0,0.5],[1,0.5]];portConstraint=eastwest;" parent="5Lk-2WCluk9JZzfyR8hW-62" vertex="1">
          <mxGeometry y="184" width="160" height="26" as="geometry" />
        </mxCell>
        <mxCell id="5Lk-2WCluk9JZzfyR8hW-71" value="+self.dopusten_pijuni" style="text;strokeColor=none;fillColor=none;align=left;verticalAlign=top;spacingLeft=4;spacingRight=4;overflow=hidden;rotatable=0;points=[[0,0.5],[1,0.5]];portConstraint=eastwest;" parent="5Lk-2WCluk9JZzfyR8hW-62" vertex="1">
          <mxGeometry y="210" width="160" height="26" as="geometry" />
        </mxCell>
        <mxCell id="5Lk-2WCluk9JZzfyR8hW-72" value="+self.izabran_pijun" style="text;strokeColor=none;fillColor=none;align=left;verticalAlign=top;spacingLeft=4;spacingRight=4;overflow=hidden;rotatable=0;points=[[0,0.5],[1,0.5]];portConstraint=eastwest;" parent="5Lk-2WCluk9JZzfyR8hW-62" vertex="1">
          <mxGeometry y="236" width="160" height="26" as="geometry" />
        </mxCell>
        <mxCell id="5Lk-2WCluk9JZzfyR8hW-73" value="self.index" style="text;strokeColor=none;fillColor=none;align=left;verticalAlign=top;spacingLeft=4;spacingRight=4;overflow=hidden;rotatable=0;points=[[0,0.5],[1,0.5]];portConstraint=eastwest;" parent="5Lk-2WCluk9JZzfyR8hW-62" vertex="1">
          <mxGeometry y="262" width="160" height="26" as="geometry" />
        </mxCell>
        <mxCell id="5Lk-2WCluk9JZzfyR8hW-76" value="self.jog_pijuni" style="text;strokeColor=none;fillColor=none;align=left;verticalAlign=top;spacingLeft=4;spacingRight=4;overflow=hidden;rotatable=0;points=[[0,0.5],[1,0.5]];portConstraint=eastwest;" parent="5Lk-2WCluk9JZzfyR8hW-62" vertex="1">
          <mxGeometry y="288" width="160" height="26" as="geometry" />
        </mxCell>
        <mxCell id="5Lk-2WCluk9JZzfyR8hW-75" value="" style="line;strokeWidth=1;fillColor=none;align=left;verticalAlign=middle;spacingTop=-1;spacingLeft=3;spacingRight=3;rotatable=0;labelPosition=right;points=[];portConstraint=eastwest;" parent="5Lk-2WCluk9JZzfyR8hW-62" vertex="1">
          <mxGeometry y="314" width="160" height="8" as="geometry" />
        </mxCell>
        <mxCell id="5Lk-2WCluk9JZzfyR8hW-65" value="+dodaj_igrac()" style="text;strokeColor=#b85450;fillColor=#f8cecc;align=left;verticalAlign=top;spacingLeft=4;spacingRight=4;overflow=hidden;rotatable=0;points=[[0,0.5],[1,0.5]];portConstraint=eastwest;" parent="5Lk-2WCluk9JZzfyR8hW-62" vertex="1">
          <mxGeometry y="322" width="160" height="26" as="geometry" />
        </mxCell>
        <mxCell id="5Lk-2WCluk9JZzfyR8hW-78" value="+dostupne_boje()" style="text;strokeColor=#b85450;fillColor=#f8cecc;align=left;verticalAlign=top;spacingLeft=4;spacingRight=4;overflow=hidden;rotatable=0;points=[[0,0.5],[1,0.5]];portConstraint=eastwest;" parent="5Lk-2WCluk9JZzfyR8hW-62" vertex="1">
          <mxGeometry y="348" width="160" height="26" as="geometry" />
        </mxCell>
        <mxCell id="5Lk-2WCluk9JZzfyR8hW-79" value="+iduce_bacanje()" style="text;strokeColor=#b85450;fillColor=#f8cecc;align=left;verticalAlign=top;spacingLeft=4;spacingRight=4;overflow=hidden;rotatable=0;points=[[0,0.5],[1,0.5]];portConstraint=eastwest;" parent="5Lk-2WCluk9JZzfyR8hW-62" vertex="1">
          <mxGeometry y="374" width="160" height="26" as="geometry" />
        </mxCell>
        <mxCell id="5Lk-2WCluk9JZzfyR8hW-80" value="+dohvati_pijun()" style="text;strokeColor=#b85450;fillColor=#f8cecc;align=left;verticalAlign=top;spacingLeft=4;spacingRight=4;overflow=hidden;rotatable=0;points=[[0,0.5],[1,0.5]];portConstraint=eastwest;" parent="5Lk-2WCluk9JZzfyR8hW-62" vertex="1">
          <mxGeometry y="400" width="160" height="26" as="geometry" />
        </mxCell>
        <mxCell id="5Lk-2WCluk9JZzfyR8hW-81" value="+dobavi_dozovljene_pijune_za_micanje()" style="text;strokeColor=#b85450;fillColor=#f8cecc;align=left;verticalAlign=top;spacingLeft=4;spacingRight=4;overflow=hidden;rotatable=0;points=[[0,0.5],[1,0.5]];portConstraint=eastwest;" parent="5Lk-2WCluk9JZzfyR8hW-62" vertex="1">
          <mxGeometry y="426" width="160" height="26" as="geometry" />
        </mxCell>
        <mxCell id="5Lk-2WCluk9JZzfyR8hW-82" value="+slika_ploce()" style="text;strokeColor=#b85450;fillColor=#f8cecc;align=left;verticalAlign=top;spacingLeft=4;spacingRight=4;overflow=hidden;rotatable=0;points=[[0,0.5],[1,0.5]];portConstraint=eastwest;" parent="5Lk-2WCluk9JZzfyR8hW-62" vertex="1">
          <mxGeometry y="452" width="160" height="26" as="geometry" />
        </mxCell>
        <mxCell id="P3WCugWBcFIrIiBlnVip-1" value="+strani_pijun()" style="text;strokeColor=#b85450;fillColor=#f8cecc;align=left;verticalAlign=top;spacingLeft=4;spacingRight=4;overflow=hidden;rotatable=0;points=[[0,0.5],[1,0.5]];portConstraint=eastwest;" parent="5Lk-2WCluk9JZzfyR8hW-62" vertex="1">
          <mxGeometry y="478" width="160" height="26" as="geometry" />
        </mxCell>
        <mxCell id="5Lk-2WCluk9JZzfyR8hW-84" value="+napravi_korak()" style="text;strokeColor=#b85450;fillColor=#f8cecc;align=left;verticalAlign=top;spacingLeft=4;spacingRight=4;overflow=hidden;rotatable=0;points=[[0,0.5],[1,0.5]];portConstraint=eastwest;" parent="5Lk-2WCluk9JZzfyR8hW-62" vertex="1">
          <mxGeometry y="504" width="160" height="26" as="geometry" />
        </mxCell>
        <mxCell id="5Lk-2WCluk9JZzfyR8hW-86" value="+pokreni_bacanje()" style="text;strokeColor=#b85450;fillColor=#f8cecc;align=left;verticalAlign=top;spacingLeft=4;spacingRight=4;overflow=hidden;rotatable=0;points=[[0,0.5],[1,0.5]];portConstraint=eastwest;" parent="5Lk-2WCluk9JZzfyR8hW-62" vertex="1">
          <mxGeometry y="530" width="160" height="26" as="geometry" />
        </mxCell>
        <mxCell id="5Lk-2WCluk9JZzfyR8hW-94" value="Text" style="text;html=1;align=center;verticalAlign=middle;resizable=0;points=[];autosize=1;" parent="1" vertex="1">
          <mxGeometry x="1130" y="530" width="40" height="20" as="geometry" />
        </mxCell>
        <mxCell id="5Lk-2WCluk9JZzfyR8hW-95" value="Kocka" style="swimlane;fontStyle=1;align=center;verticalAlign=top;childLayout=stackLayout;horizontal=1;startSize=26;horizontalStack=0;resizeParent=1;resizeParentMax=0;resizeLast=0;collapsible=1;marginBottom=0;" parent="1" vertex="1">
          <mxGeometry x="440" y="940" width="160" height="112" as="geometry" />
        </mxCell>
        <mxCell id="5Lk-2WCluk9JZzfyR8hW-96" value="+min" style="text;strokeColor=none;fillColor=none;align=left;verticalAlign=top;spacingLeft=4;spacingRight=4;overflow=hidden;rotatable=0;points=[[0,0.5],[1,0.5]];portConstraint=eastwest;" parent="5Lk-2WCluk9JZzfyR8hW-95" vertex="1">
          <mxGeometry y="26" width="160" height="26" as="geometry" />
        </mxCell>
        <mxCell id="5Lk-2WCluk9JZzfyR8hW-99" value="+max" style="text;strokeColor=none;fillColor=none;align=left;verticalAlign=top;spacingLeft=4;spacingRight=4;overflow=hidden;rotatable=0;points=[[0,0.5],[1,0.5]];portConstraint=eastwest;" parent="5Lk-2WCluk9JZzfyR8hW-95" vertex="1">
          <mxGeometry y="52" width="160" height="26" as="geometry" />
        </mxCell>
        <mxCell id="5Lk-2WCluk9JZzfyR8hW-97" value="" style="line;strokeWidth=1;fillColor=none;align=left;verticalAlign=middle;spacingTop=-1;spacingLeft=3;spacingRight=3;rotatable=0;labelPosition=right;points=[];portConstraint=eastwest;" parent="5Lk-2WCluk9JZzfyR8hW-95" vertex="1">
          <mxGeometry y="78" width="160" height="8" as="geometry" />
        </mxCell>
        <mxCell id="5Lk-2WCluk9JZzfyR8hW-98" value="+bacanje()" style="text;strokeColor=none;fillColor=none;align=left;verticalAlign=top;spacingLeft=4;spacingRight=4;overflow=hidden;rotatable=0;points=[[0,0.5],[1,0.5]];portConstraint=eastwest;" parent="5Lk-2WCluk9JZzfyR8hW-95" vertex="1">
          <mxGeometry y="86" width="160" height="26" as="geometry" />
        </mxCell>
        <mxCell id="5Lk-2WCluk9JZzfyR8hW-104" value="Prikaz" style="swimlane;fontStyle=1;align=center;verticalAlign=top;childLayout=stackLayout;horizontal=1;startSize=26;horizontalStack=0;resizeParent=1;resizeParentMax=0;resizeLast=0;collapsible=1;marginBottom=0;fillColor=#dae8fc;strokeColor=#6c8ebf;" parent="1" vertex="1">
          <mxGeometry x="710" y="760" width="260" height="210" as="geometry" />
        </mxCell>
        <mxCell id="5Lk-2WCluk9JZzfyR8hW-109" value="+self_prompt_kraj" style="text;strokeColor=none;fillColor=none;align=left;verticalAlign=top;spacingLeft=4;spacingRight=4;overflow=hidden;rotatable=0;points=[[0,0.5],[1,0.5]];portConstraint=eastwest;" parent="5Lk-2WCluk9JZzfyR8hW-104" vertex="1">
          <mxGeometry y="26" width="260" height="22" as="geometry" />
        </mxCell>
        <mxCell id="5Lk-2WCluk9JZzfyR8hW-111" value="+ self.igra" style="text;strokeColor=none;fillColor=none;align=left;verticalAlign=top;spacingLeft=4;spacingRight=4;overflow=hidden;rotatable=0;points=[[0,0.5],[1,0.5]];portConstraint=eastwest;" parent="5Lk-2WCluk9JZzfyR8hW-104" vertex="1">
          <mxGeometry y="48" width="260" height="24" as="geometry" />
        </mxCell>
        <mxCell id="P3WCugWBcFIrIiBlnVip-2" value="+self.prompted_for_pijun" style="text;strokeColor=none;fillColor=none;align=left;verticalAlign=top;spacingLeft=4;spacingRight=4;overflow=hidden;rotatable=0;points=[[0,0.5],[1,0.5]];portConstraint=eastwest;" parent="5Lk-2WCluk9JZzfyR8hW-104" vertex="1">
          <mxGeometry y="72" width="260" height="26" as="geometry" />
        </mxCell>
        <mxCell id="5Lk-2WCluk9JZzfyR8hW-106" value="" style="line;strokeWidth=1;fillColor=none;align=left;verticalAlign=middle;spacingTop=-1;spacingLeft=3;spacingRight=3;rotatable=0;labelPosition=right;points=[];portConstraint=eastwest;" parent="5Lk-2WCluk9JZzfyR8hW-104" vertex="1">
          <mxGeometry y="98" width="260" height="8" as="geometry" />
        </mxCell>
        <mxCell id="5Lk-2WCluk9JZzfyR8hW-107" value="+prikaziPocetakIgre()" style="text;strokeColor=#6c8ebf;fillColor=#dae8fc;align=left;verticalAlign=top;spacingLeft=4;spacingRight=4;overflow=hidden;rotatable=0;points=[[0,0.5],[1,0.5]];portConstraint=eastwest;" parent="5Lk-2WCluk9JZzfyR8hW-104" vertex="1">
          <mxGeometry y="106" width="260" height="26" as="geometry" />
        </mxCell>
        <mxCell id="5Lk-2WCluk9JZzfyR8hW-112" value="+dohvati_korisnikov_pocetni_izbor()" style="text;strokeColor=#6c8ebf;fillColor=#dae8fc;align=left;verticalAlign=top;spacingLeft=4;spacingRight=4;overflow=hidden;rotatable=0;points=[[0,0.5],[1,0.5]];portConstraint=eastwest;" parent="5Lk-2WCluk9JZzfyR8hW-104" vertex="1">
          <mxGeometry y="132" width="260" height="26" as="geometry" />
        </mxCell>
        <mxCell id="5Lk-2WCluk9JZzfyR8hW-114" value="+odabir_covjek_ili_computer_ime()" style="text;strokeColor=#6c8ebf;fillColor=#dae8fc;align=left;verticalAlign=top;spacingLeft=4;spacingRight=4;overflow=hidden;rotatable=0;points=[[0,0.5],[1,0.5]];portConstraint=eastwest;" parent="5Lk-2WCluk9JZzfyR8hW-104" vertex="1">
          <mxGeometry y="158" width="260" height="26" as="geometry" />
        </mxCell>
        <mxCell id="5Lk-2WCluk9JZzfyR8hW-115" value="+igraj_igru()" style="text;strokeColor=#6c8ebf;fillColor=#dae8fc;align=left;verticalAlign=top;spacingLeft=4;spacingRight=4;overflow=hidden;rotatable=0;points=[[0,0.5],[1,0.5]];portConstraint=eastwest;" parent="5Lk-2WCluk9JZzfyR8hW-104" vertex="1">
          <mxGeometry y="184" width="260" height="26" as="geometry" />
        </mxCell>
        <mxCell id="MF-lZtMFwEXZ7OxDoUWj-1" value="Relation" style="endArrow=open;html=1;endSize=12;startArrow=diamondThin;startSize=14;startFill=0;edgeStyle=orthogonalEdgeStyle;exitX=0.75;exitY=0;exitDx=0;exitDy=0;" parent="1" source="5Lk-2WCluk9JZzfyR8hW-62" target="5Lk-2WCluk9JZzfyR8hW-56" edge="1">
          <mxGeometry relative="1" as="geometry">
            <mxPoint x="280" y="520" as="sourcePoint" />
            <mxPoint x="250" y="370" as="targetPoint" />
            <Array as="points">
              <mxPoint x="200" y="418" />
              <mxPoint x="80" y="418" />
              <mxPoint x="80" y="343" />
            </Array>
          </mxGeometry>
        </mxCell>
        <mxCell id="MF-lZtMFwEXZ7OxDoUWj-2" value="0..n" style="edgeLabel;resizable=0;html=1;align=left;verticalAlign=top;" parent="MF-lZtMFwEXZ7OxDoUWj-1" connectable="0" vertex="1">
          <mxGeometry x="-1" relative="1" as="geometry" />
        </mxCell>
        <mxCell id="MF-lZtMFwEXZ7OxDoUWj-3" value="4" style="edgeLabel;resizable=0;html=1;align=right;verticalAlign=top;" parent="MF-lZtMFwEXZ7OxDoUWj-1" connectable="0" vertex="1">
          <mxGeometry x="1" relative="1" as="geometry" />
        </mxCell>
        <mxCell id="MF-lZtMFwEXZ7OxDoUWj-4" value="1" style="endArrow=open;html=1;endSize=12;startArrow=diamondThin;startSize=14;startFill=1;edgeStyle=orthogonalEdgeStyle;align=left;verticalAlign=bottom;exitX=1;exitY=0.5;exitDx=0;exitDy=0;" parent="1" source="5Lk-2WCluk9JZzfyR8hW-76" edge="1">
          <mxGeometry x="-1" y="3" relative="1" as="geometry">
            <mxPoint x="430" y="470" as="sourcePoint" />
            <mxPoint x="710" y="820" as="targetPoint" />
            <Array as="points">
              <mxPoint x="350" y="781" />
              <mxPoint x="350" y="820" />
            </Array>
          </mxGeometry>
        </mxCell>
        <mxCell id="MF-lZtMFwEXZ7OxDoUWj-5" value="1" style="endArrow=open;html=1;endSize=12;startArrow=diamondThin;startSize=14;startFill=1;edgeStyle=orthogonalEdgeStyle;align=left;verticalAlign=bottom;exitX=1;exitY=0.5;exitDx=0;exitDy=0;entryX=0.644;entryY=0.01;entryDx=0;entryDy=0;entryPerimeter=0;" parent="1" target="5Lk-2WCluk9JZzfyR8hW-95" edge="1">
          <mxGeometry x="-1" y="3" relative="1" as="geometry">
            <mxPoint x="239.99999999999977" y="829.9999999999998" as="sourcePoint" />
            <mxPoint x="710" y="869" as="targetPoint" />
            <Array as="points">
              <mxPoint x="350" y="830" />
              <mxPoint x="350" y="869" />
              <mxPoint x="543" y="869" />
            </Array>
          </mxGeometry>
        </mxCell>
        <mxCell id="MF-lZtMFwEXZ7OxDoUWj-6" value="1" style="endArrow=open;html=1;endSize=12;startArrow=diamondThin;startSize=14;startFill=1;edgeStyle=orthogonalEdgeStyle;align=left;verticalAlign=bottom;entryX=0;entryY=0.5;entryDx=0;entryDy=0;exitX=1.007;exitY=0.079;exitDx=0;exitDy=0;exitPerimeter=0;" parent="1" source="5Lk-2WCluk9JZzfyR8hW-72" target="5Lk-2WCluk9JZzfyR8hW-35" edge="1">
          <mxGeometry x="-1" y="3" relative="1" as="geometry">
            <mxPoint x="260" y="710" as="sourcePoint" />
            <mxPoint x="350" y="430" as="targetPoint" />
            <Array as="points">
              <mxPoint x="241" y="732" />
              <mxPoint x="350" y="732" />
              <mxPoint x="350" y="771" />
            </Array>
          </mxGeometry>
        </mxCell>
      </root>
    </mxGraphModel>
  </diagram>
  <diagram id="WkWae0V2T4ftGJnn2FQq" name="Dijagram">
    <mxGraphModel dx="898" dy="482" grid="1" gridSize="10" guides="1" tooltips="1" connect="1" arrows="1" fold="1" page="1" pageScale="1" pageWidth="827" pageHeight="1169" math="0" shadow="0">
      <root>
        <mxCell id="GAQ1wbNPf6ZKFv2ZUsRi-0" />
        <mxCell id="GAQ1wbNPf6ZKFv2ZUsRi-1" parent="GAQ1wbNPf6ZKFv2ZUsRi-0" />
        <mxCell id="GAQ1wbNPf6ZKFv2ZUsRi-2" value="«model»&lt;br&gt;&lt;b&gt;Kocka&lt;br&gt;&lt;/b&gt;" style="html=1;" parent="GAQ1wbNPf6ZKFv2ZUsRi-1" vertex="1">
          <mxGeometry x="100" y="80" width="110" height="50" as="geometry" />
        </mxCell>
        <mxCell id="GAQ1wbNPf6ZKFv2ZUsRi-3" value="«view»&lt;br&gt;&lt;b&gt;Prikaz&lt;/b&gt;" style="html=1;fillColor=#dae8fc;strokeColor=#6c8ebf;" parent="GAQ1wbNPf6ZKFv2ZUsRi-1" vertex="1">
          <mxGeometry x="610" y="230" width="110" height="50" as="geometry" />
        </mxCell>
        <mxCell id="GAQ1wbNPf6ZKFv2ZUsRi-4" value="«controller»&lt;br&gt;&lt;b&gt;Igra&lt;/b&gt;" style="html=1;fillColor=#f8cecc;strokeColor=#b85450;" parent="GAQ1wbNPf6ZKFv2ZUsRi-1" vertex="1">
          <mxGeometry x="370" y="330" width="110" height="50" as="geometry" />
        </mxCell>
        <mxCell id="GAQ1wbNPf6ZKFv2ZUsRi-5" value="«model»&lt;br&gt;&lt;b&gt;Ploca&lt;/b&gt;" style="html=1;" parent="GAQ1wbNPf6ZKFv2ZUsRi-1" vertex="1">
          <mxGeometry x="395" y="130" width="110" height="50" as="geometry" />
        </mxCell>
        <mxCell id="GAQ1wbNPf6ZKFv2ZUsRi-6" value="«model»&lt;br&gt;&lt;b&gt;Igrac&lt;/b&gt;" style="html=1;" parent="GAQ1wbNPf6ZKFv2ZUsRi-1" vertex="1">
          <mxGeometry x="100" y="230" width="110" height="50" as="geometry" />
        </mxCell>
        <mxCell id="GAQ1wbNPf6ZKFv2ZUsRi-7" value="" style="endArrow=none;html=1;edgeStyle=orthogonalEdgeStyle;exitX=0.68;exitY=0.02;exitDx=0;exitDy=0;exitPerimeter=0;" parent="GAQ1wbNPf6ZKFv2ZUsRi-1" source="GAQ1wbNPf6ZKFv2ZUsRi-4" edge="1">
          <mxGeometry relative="1" as="geometry">
            <mxPoint x="465" y="330" as="sourcePoint" />
            <mxPoint x="610.0000000000002" y="255" as="targetPoint" />
            <Array as="points">
              <mxPoint x="445" y="255" />
            </Array>
          </mxGeometry>
        </mxCell>
        <mxCell id="GAQ1wbNPf6ZKFv2ZUsRi-8" value="" style="endArrow=none;html=1;edgeStyle=orthogonalEdgeStyle;entryX=0;entryY=0;entryDx=0;entryDy=0;" parent="GAQ1wbNPf6ZKFv2ZUsRi-1" target="GAQ1wbNPf6ZKFv2ZUsRi-4" edge="1">
          <mxGeometry relative="1" as="geometry">
            <mxPoint x="210" y="254.5" as="sourcePoint" />
            <mxPoint x="370.0000000000002" y="254.5" as="targetPoint" />
            <Array as="points">
              <mxPoint x="365" y="255" />
            </Array>
          </mxGeometry>
        </mxCell>
        <mxCell id="GAQ1wbNPf6ZKFv2ZUsRi-9" value="" style="endArrow=none;html=1;edgeStyle=orthogonalEdgeStyle;entryX=0.75;entryY=0;entryDx=0;entryDy=0;" parent="GAQ1wbNPf6ZKFv2ZUsRi-1" target="GAQ1wbNPf6ZKFv2ZUsRi-5" edge="1">
          <mxGeometry relative="1" as="geometry">
            <mxPoint x="205" y="90" as="sourcePoint" />
            <mxPoint x="365.0000000000002" y="90" as="targetPoint" />
            <Array as="points">
              <mxPoint x="363" y="91" />
            </Array>
          </mxGeometry>
        </mxCell>
        <mxCell id="GAQ1wbNPf6ZKFv2ZUsRi-10" value="" style="endArrow=none;html=1;edgeStyle=orthogonalEdgeStyle;exitX=0.5;exitY=1;exitDx=0;exitDy=0;entryX=0.5;entryY=0;entryDx=0;entryDy=0;" parent="GAQ1wbNPf6ZKFv2ZUsRi-1" source="GAQ1wbNPf6ZKFv2ZUsRi-5" target="GAQ1wbNPf6ZKFv2ZUsRi-4" edge="1">
          <mxGeometry relative="1" as="geometry">
            <mxPoint x="270" y="180" as="sourcePoint" />
            <mxPoint x="430" y="180" as="targetPoint" />
            <Array as="points">
              <mxPoint x="425" y="200" />
              <mxPoint x="425" y="200" />
            </Array>
          </mxGeometry>
        </mxCell>
        <mxCell id="GAQ1wbNPf6ZKFv2ZUsRi-11" value="" style="endArrow=none;html=1;edgeStyle=orthogonalEdgeStyle;exitX=0.5;exitY=1;exitDx=0;exitDy=0;entryX=0.5;entryY=0;entryDx=0;entryDy=0;" parent="GAQ1wbNPf6ZKFv2ZUsRi-1" edge="1">
          <mxGeometry relative="1" as="geometry">
            <mxPoint x="154.5" y="130" as="sourcePoint" />
            <mxPoint x="154.5" y="230" as="targetPoint" />
            <Array as="points">
              <mxPoint x="154.5" y="200" />
              <mxPoint x="154.5" y="200" />
            </Array>
          </mxGeometry>
        </mxCell>
      </root>
    </mxGraphModel>
  </diagram>
  <diagram id="O85xi43B0JRecJG0S4Nx" name="Dijagram klasa pogleda Čovječe ne ljuti se">
    <mxGraphModel dx="898" dy="482" grid="1" gridSize="10" guides="1" tooltips="1" connect="1" arrows="1" fold="1" page="1" pageScale="1" pageWidth="827" pageHeight="1169" math="0" shadow="0">
      <root>
        <mxCell id="WdMJ5OcjHjvA4ntCFSDY-0" />
        <mxCell id="WdMJ5OcjHjvA4ntCFSDY-1" parent="WdMJ5OcjHjvA4ntCFSDY-0" />
        <mxCell id="q222Uh0aoFUY95NXyKkL-0" value="Prikaz" style="swimlane;fontStyle=1;align=center;verticalAlign=top;childLayout=stackLayout;horizontal=1;startSize=26;horizontalStack=0;resizeParent=1;resizeParentMax=0;resizeLast=0;collapsible=1;marginBottom=0;strokeColor=#6c8ebf;fillColor=#dae8fc;html=1;" parent="WdMJ5OcjHjvA4ntCFSDY-1" vertex="1">
          <mxGeometry x="130" y="230" width="160" height="138" as="geometry">
            <mxRectangle x="130" y="230" width="70" height="26" as="alternateBounds" />
          </mxGeometry>
        </mxCell>
        <mxCell id="q222Uh0aoFUY95NXyKkL-2" value="" style="line;strokeWidth=1;fillColor=none;align=left;verticalAlign=middle;spacingTop=-1;spacingLeft=3;spacingRight=3;rotatable=0;labelPosition=right;points=[];portConstraint=eastwest;" parent="q222Uh0aoFUY95NXyKkL-0" vertex="1">
          <mxGeometry y="26" width="160" height="8" as="geometry" />
        </mxCell>
        <mxCell id="q222Uh0aoFUY95NXyKkL-3" value="prikaziPocetakIgre()" style="text;strokeColor=none;fillColor=none;align=left;verticalAlign=top;spacingLeft=4;spacingRight=4;overflow=hidden;rotatable=0;points=[[0,0.5],[1,0.5]];portConstraint=eastwest;" parent="q222Uh0aoFUY95NXyKkL-0" vertex="1">
          <mxGeometry y="34" width="160" height="26" as="geometry" />
        </mxCell>
        <mxCell id="lQW66CqkbsENfFjeRrtd-3" value="opcijaStartIgre()" style="text;strokeColor=none;fillColor=none;align=left;verticalAlign=top;spacingLeft=4;spacingRight=4;overflow=hidden;rotatable=0;points=[[0,0.5],[1,0.5]];portConstraint=eastwest;" parent="q222Uh0aoFUY95NXyKkL-0" vertex="1">
          <mxGeometry y="60" width="160" height="26" as="geometry" />
        </mxCell>
        <mxCell id="-8FA1HeXkwwPCG7JwZb5-6" value="unosImena()" style="text;strokeColor=none;fillColor=none;align=left;verticalAlign=top;spacingLeft=4;spacingRight=4;overflow=hidden;rotatable=0;points=[[0,0.5],[1,0.5]];portConstraint=eastwest;" parent="q222Uh0aoFUY95NXyKkL-0" vertex="1">
          <mxGeometry y="86" width="160" height="26" as="geometry" />
        </mxCell>
        <mxCell id="-8FA1HeXkwwPCG7JwZb5-7" value="biranjeBoje()" style="text;strokeColor=none;fillColor=none;align=left;verticalAlign=top;spacingLeft=4;spacingRight=4;overflow=hidden;rotatable=0;points=[[0,0.5],[1,0.5]];portConstraint=eastwest;" parent="q222Uh0aoFUY95NXyKkL-0" vertex="1">
          <mxGeometry y="112" width="160" height="26" as="geometry" />
        </mxCell>
      </root>
    </mxGraphModel>
  </diagram>
</mxfile>
